<svg id="Layer_1" data-name="Layer 1" xmlns="http://www.w3.org/2000/svg" viewBox="0 0 1000 1000"><title>logo</title><path d="M757.22,649.42a71,71,0,0,1-37.83,11.08,69.46,69.46,0,0,1-47.74-19.16l-253-237.91a49.37,49.37,0,0,0-44.28-12.34c-16.24,3.32-29.05,13.71-35.14,28.51l-70.43,171c-3.9,9.46,2.57,14.82,5.54,16.69s10.84,5.52,18.47-1.81l67.89-65.23a28.44,28.44,0,0,1,19.81-7.89H503.11c15.48,0,28.08,12.16,28.08,27.1s-12.6,27.11-28.08,27.11h-111l-59.67,57.34a71.54,71.54,0,0,1-49.67,20.29,73.4,73.4,0,0,1-39.15-11.53c-28.87-18.22-39.72-51.21-27-82.11l70.42-170.95c13-31.48,41.27-54.48,75.7-61.51a107.41,107.41,0,0,1,95.1,26.53l253,237.91c6.31,5.94,12.58,3.48,15.76,1.48,3.81-2.39,7.74-6.79,4.85-14.16L665,421c-6.38-16.21-22.82-27.1-40.9-27.1H547.54c-15.48,0-28.08-12.16-28.08-27.11s12.6-27.1,28.08-27.1h76.58c41.25,0,78.79,24.94,93.4,62l66.42,168.79C795.66,600.34,784.92,632,757.22,649.42Z" fill="#20c997"/><path d="M500,59C256.87,59,59,256.83,59,500S256.87,941,500,941,941,743.17,941,500,743.17,59,500,59Zm0,827.91c-213.35,0-386.91-173.57-386.91-386.91S286.69,113.09,500,113.09,886.87,286.66,886.87,500,713.34,886.91,500,886.91Z" fill="#20c997"/><path d="M500,500l0,.08V500Z" fill="#20c997"/><path d="M500,500l0,.08V500Z" fill="#20c997"/></svg>